# File created by Blade
# Date/Time:  Wed Jan 21 17:41:14 2015
# Frame Rate: 120.000 fps
#------------------------------------------------------
:FULLY-SPECIFIED
:DEGREES
1007
root 15.480078 14.431926 -22.979491 -167.905133 85.792706 -250.316849
Spine 1.750220 -0.419659 -0.229751
Head 41.550697 -2.139071 -5.330387
LeftShoulder -7.935858 -23.401626 8.577599
LeftArm 54.660781 32.903444 -16.679702
LeftForeArm 10.788308 0.000000 58.618449
LeftHand 0.058215 -0.000000 70.712131
LeftHandThumb1 -26.253704 0.000000 33.147579
RightShoulder -8.220344 -12.815014 -7.494779
RightArm 52.318667 2.448119 20.719568
RightForeArm -30.605702 -0.000000 65.636173
RightHand -6.111097 -0.000000 -63.429448
RightHandThumb1 -24.326973 -0.000000 -32.862282
LeftUpLeg -10.599972 1.179319 -2.930135
LeftLeg 5.593852 -0.000000 -0.000000
LeftFoot -14.712825 28.419175 -11.397411
LeftToeBase -28.536475 -0.000000 0.000000
RightUpLeg -8.254560 4.652567 5.444703
RightLeg 3.793573 -0.000000 -0.000000
RightFoot -27.368032 -25.376269 18.944845
RightToeBase -20.377923 -0.000000 0.000000
1008
root 15.423764 14.588801 -22.965341 -169.216089 85.789289 -251.317769
Spine 2.185301 -0.438868 -0.359631
Head 41.567302 -2.163967 -5.186348
LeftShoulder -7.647623 -23.608552 8.481023
LeftArm 55.199551 32.682042 -16.713750
LeftForeArm 10.569110 0.000000 56.960282
LeftHand 0.183852 0.000000 70.781737
LeftHandThumb1 -26.253704 0.000000 33.147579
RightShoulder -7.935250 -12.570670 -7.521563
RightArm 52.884436 2.590023 20.688627
RightForeArm -30.342545 -0.000000 64.159458
RightHand -5.977886 -0.000000 -64.008670
RightHandThumb1 -24.326973 -0.000000 -32.862282
LeftUpLeg -10.597344 1.043518 -2.924622
LeftLeg 5.691859 -0.000000 -0.000000
LeftFoot -14.370716 28.300030 -11.260862
LeftToeBase -28.934730 -0.000000 0.000000
RightUpLeg -8.198311 4.727031 5.372877
RightLeg 3.714295 -0.000000 -0.000000
RightFoot -27.092712 -25.628873 18.620687
RightToeBase -20.704686 -0.000000 0.000000
1009
root 15.368558 14.746398 -22.952814 -170.221434 85.732892 -252.026129
Spine 2.604237 -0.447441 -0.413675
Head 41.582280 -2.211414 -5.133375
LeftShoulder -7.264015 -23.913345 8.321173
LeftArm 55.595794 32.528759 -16.862665
LeftForeArm 10.405666 -0.000000 55.326580
LeftHand 0.322604 -0.000000 70.634478
LeftHandThumb1 -26.253704 0.000000 33.147579
RightShoulder -7.690223 -12.210212 -7.604276
RightArm 53.356754 2.591373 20.679691
RightForeArm -30.104157 -0.000000 62.761435
RightHand -5.951632 -0.000000 -64.275432
RightHandThumb1 -24.326973 -0.000000 -32.862282
LeftUpLeg -10.591137 0.749616 -2.879358
LeftLeg 5.747323 -0.000000 -0.000000
LeftFoot -14.087522 28.239155 -11.269448
LeftToeBase -29.719778 -0.000000 0.000000
RightUpLeg -8.214268 4.546204 5.345539
RightLeg 3.741765 -0.000000 -0.000000
RightFoot -26.781754 -25.679039 18.371707
RightToeBase -21.042779 -0.000000 0.000000
1010
root 15.310883 14.905091 -22.938232 -171.046323 85.683900 -252.546352
Spine 3.046511 -0.413550 -0.462530
Head 41.552328 -2.297727 -5.019647
LeftShoulder -6.905000 -24.130904 8.126073
LeftArm 56.257356 32.309825 -16.777702
LeftForeArm 10.116573 -0.000000 53.558977
LeftHand 0.382171 -0.000000 70.614142
LeftHandThumb1 -26.253704 0.000000 33.147579
RightShoulder -7.507794 -11.870822 -7.674553
RightArm 53.892931 2.635517 20.647657
RightForeArm -29.841740 -0.000000 61.280797
RightHand -5.834222 -0.000000 -64.659080
RightHandThumb1 -24.326973 -0.000000 -32.862282
LeftUpLeg -10.584766 0.483729 -2.817438
LeftLeg 5.820676 -0.000000 -0.000000
LeftFoot -13.672870 28.223002 -10.933716
LeftToeBase -29.765399 -0.000000 0.000000
RightUpLeg -8.174943 4.605869 5.314793
RightLeg 3.693827 -0.000000 -0.000000
RightFoot -26.567257 -25.941701 18.187779
RightToeBase -21.154795 -0.000000 0.000000
1011
root 15.255437 15.061224 -22.926029 -172.580965 85.673092 -253.813623
Spine 3.407846 -0.495300 -0.595045
Head 41.481226 -2.232070 -5.129505
LeftShoulder -6.658495 -24.351807 7.989977
LeftArm 56.841208 32.131997 -16.740907
LeftForeArm 9.947468 -0.000000 51.777731
LeftHand 0.412910 -0.000000 70.662875
LeftHandThumb1 -26.253704 0.000000 33.147579
RightShoulder -7.203327 -11.626351 -7.728488
RightArm 54.566117 2.731938 20.566067
RightForeArm -29.409066 0.000000 59.633043
RightHand -5.546635 -0.000000 -65.119504
RightHandThumb1 -24.326973 -0.000000 -32.862282
LeftUpLeg -10.619861 0.327559 -2.830371
LeftLeg 5.888831 -0.000000 -0.000000
LeftFoot -13.199654 28.002171 -10.964248
LeftToeBase -30.959795 -0.000000 0.000000
RightUpLeg -8.275272 4.291655 5.257049
RightLeg 3.866086 -0.000000 -0.000000
RightFoot -26.373170 -25.774958 17.922559
RightToeBase -21.205664 -0.000000 0.000000
1012
root 15.200863 15.214871 -22.914018 -174.023921 85.694944 -254.917838
Spine 3.866896 -0.468552 -0.709648
Head 41.431013 -2.264931 -5.111549
LeftShoulder -6.354501 -24.595716 7.816054
LeftArm 57.454570 31.935603 -16.723413
LeftForeArm 9.818400 -0.000000 49.932723
LeftHand 0.473326 0.000000 70.528123
LeftHandThumb1 -26.253704 0.000000 33.147579
RightShoulder -6.922843 -11.179662 -7.780659
RightArm 55.050876 2.663205 20.476066
RightForeArm -29.187996 -0.000000 58.109956
RightHand -5.478617 0.000000 -65.297279
RightHandThumb1 -24.326973 -0.000000 -32.862282
LeftUpLeg -10.610693 0.327176 -2.858070
LeftLeg 6.035898 -0.000000 -0.000000
LeftFoot -12.793882 27.793789 -10.799669
LeftToeBase -31.661641 -0.000000 0.000000
RightUpLeg -8.246215 4.237649 5.187816
RightLeg 3.922212 -0.000000 -0.000000
RightFoot -26.251644 -25.834178 17.854403
RightToeBase -21.315689 -0.000000 0.000000
1013
root 15.147196 15.372791 -22.904894 -175.417902 85.700865 -255.985682
Spine 4.331043 -0.461987 -0.794920
Head 41.361248 -2.316571 -5.163285
LeftShoulder -6.022264 -24.891114 7.626347
LeftArm 58.018435 31.782195 -16.712626
LeftForeArm 9.631966 0.000000 48.059956
LeftHand 0.661702 -0.000000 70.419018
LeftHandThumb1 -26.253704 0.000000 33.147579
RightShoulder -6.686212 -10.945117 -7.774440
RightArm 55.690108 2.811770 20.305870
RightForeArm -28.903814 -0.000000 56.509938
RightHand -5.455055 -0.000000 -65.695068
RightHandThumb1 -24.326973 -0.000000 -32.862282
LeftUpLeg -10.551596 0.113511 -2.858599
LeftLeg 6.047705 -0.000000 -0.000000
LeftFoot -12.349572 27.804661 -10.585551
LeftToeBase -32.140970 -0.000000 0.000000
RightUpLeg -8.203824 4.255625 5.104525
RightLeg 3.925619 -0.000000 -0.000000
RightFoot -26.087261 -25.954254 17.769050
RightToeBase -21.313951 -0.000000 0.000000
1014
root 15.092349 15.531713 -22.894130 -177.075794 85.733258 -257.308476
Spine 4.817162 -0.369812 -0.920664
Head 41.260296 -2.446305 -5.128166
LeftShoulder -5.648874 -25.117893 7.445376
LeftArm 58.712269 31.552778 -16.649563
LeftForeArm 9.413499 0.000000 46.067004
LeftHand 0.777150 0.000000 70.460158
LeftHandThumb1 -26.253704 0.000000 33.147579
RightShoulder -6.468713 -10.692578 -7.834681
RightArm 56.323354 2.937050 20.286309
RightForeArm -28.464735 -0.000000 54.785341
RightHand -5.023232 -0.000000 -66.147051
RightHandThumb1 -24.326973 -0.000000 -32.862282
LeftUpLeg -10.506085 0.017592 -2.891468
LeftLeg 6.098335 -0.000000 -0.000000
LeftFoot -11.933547 27.791537 -10.297753
LeftToeBase -32.492234 -0.000000 0.000000
RightUpLeg -8.164502 4.305381 5.006364
RightLeg 3.947688 -0.000000 -0.000000
RightFoot -25.861995 -26.110097 17.574508
RightToeBase -21.422382 -0.000000 0.000000
1015
root 15.036396 15.696897 -22.883422 -179.290787 85.784172 -259.311734
Spine 5.156346 -0.350232 -1.114279
Head 41.115846 -2.461256 -5.103055
LeftShoulder -5.388271 -25.444909 7.371629
LeftArm 59.373583 31.487856 -16.575180
LeftForeArm 9.095240 0.000000 44.091682
LeftHand 0.850547 0.000000 70.534852
LeftHandThumb1 -26.253704 0.000000 33.147579
RightShoulder -6.180408 -10.435827 -7.869375
RightArm 56.995517 3.051194 20.273574
RightForeArm -28.055187 -0.000000 53.094535
RightHand -4.742826 0.000000 -66.506086
RightHandThumb1 -24.326973 -0.000000 -32.862282
LeftUpLeg -10.610385 -0.016298 -2.977190
LeftLeg 6.182739 -0.000000 -0.000000
LeftFoot -11.441012 27.627065 -10.342174
LeftToeBase -33.880351 -0.000000 0.000000
RightUpLeg -8.296388 4.343550 4.859999
RightLeg 4.044170 -0.000000 -0.000000
RightFoot -25.714281 -26.174443 17.448843
RightToeBase -21.290150 -0.000000 0.000000
1016
root 14.982408 15.856753 -22.872250 -181.289835 85.812253 -260.990498
Spine 5.646693 -0.310635 -1.271259
Head 40.927863 -2.551400 -5.114386
LeftShoulder -5.037310 -25.729761 7.297166
LeftArm 59.980787 31.346406 -16.592476
LeftForeArm 8.701324 -0.000000 42.098378
LeftHand 0.974723 -0.000000 70.598665
LeftHandThumb1 -26.253704 0.000000 33.147579
RightShoulder -5.866908 -10.074856 -7.969223
RightArm 57.547408 3.091872 20.371824
RightForeArm -27.798029 -0.000000 51.478576
RightHand -4.585176 0.000000 -66.651477
RightHandThumb1 -24.326973 -0.000000 -32.862282
LeftUpLeg -10.605511 0.015022 -3.045851
LeftLeg 6.275163 -0.000000 -0.000000
LeftFoot -11.029243 27.446865 -10.207220
LeftToeBase -34.507593 -0.000000 0.000000
RightUpLeg -8.287822 4.305883 4.756184
RightLeg 4.079940 -0.000000 -0.000000
RightFoot -25.474170 -26.242498 17.357805
RightToeBase -21.484017 -0.000000 0.000000
1017
root 14.926568 16.019718 -22.857255 -183.180086 85.866009 -262.661184
Spine 6.009560 -0.292313 -1.415862
Head 40.763662 -2.561586 -5.138496
LeftShoulder -4.691005 -25.972323 7.217300
LeftArm 60.497935 31.194920 -16.612970
LeftForeArm 8.425497 -0.000000 40.147217
LeftHand 1.076090 -0.000000 70.646117
LeftHandThumb1 -26.253704 0.000000 33.147579
RightShoulder -5.539088 -9.932911 -8.048584
RightArm 58.209191 3.332798 20.456928
RightForeArm -27.527802 0.000000 49.837986
RightHand -4.331510 -0.000000 -66.896107
RightHandThumb1 -24.326973 -0.000000 -32.862282
LeftUpLeg -10.708941 0.069550 -3.104233
LeftLeg 6.380284 -0.000000 -0.000000
LeftFoot -10.614016 27.305864 -9.900662
LeftToeBase -34.765355 -0.000000 0.000000
RightUpLeg -8.402383 4.359000 4.655443
RightLeg 4.138497 -0.000000 -0.000000
RightFoot -25.190566 -26.448088 17.214073
RightToeBase -21.635639 -0.000000 0.000000
